<svg version="1.1" id="Capa_1" xmlns="http://www.w3.org/2000/svg" xmlns:xlink="http://www.w3.org/1999/xlink" x="0px" y="0px"
	 viewBox="0 0 136 32" style="enable-background:new 0 0 136 32;" xml:space="preserve">
<style type="text/css">
	.st0{fill:#2A8BF4;}
	.st1{fill:#EE701E;}
</style>
<g>
	<path d="M30.7,12.5c-0.1,0.1-0.1,0.2-0.2,0.2s-0.1,0.1-0.2,0.1c-0.1,0-0.2-0.1-0.4-0.2c-0.1-0.1-0.3-0.2-0.5-0.3
		c-0.2-0.1-0.4-0.2-0.7-0.3c-0.3-0.1-0.6-0.2-1-0.2c-0.4,0-0.7,0.1-1,0.2c-0.3,0.1-0.5,0.2-0.7,0.4c-0.2,0.2-0.3,0.4-0.4,0.6
		c-0.1,0.2-0.2,0.5-0.2,0.8c0,0.4,0.1,0.6,0.3,0.9c0.2,0.2,0.4,0.4,0.7,0.6c0.3,0.2,0.6,0.3,1,0.4c0.4,0.1,0.7,0.2,1.1,0.4
		c0.4,0.1,0.8,0.3,1.1,0.4c0.4,0.2,0.7,0.4,1,0.6c0.3,0.2,0.5,0.6,0.7,0.9c0.2,0.4,0.3,0.8,0.3,1.3c0,0.6-0.1,1.1-0.3,1.6
		c-0.2,0.5-0.5,0.9-0.8,1.3c-0.4,0.4-0.8,0.6-1.3,0.9c-0.5,0.2-1.1,0.3-1.8,0.3c-0.8,0-1.6-0.1-2.2-0.4c-0.7-0.3-1.2-0.7-1.7-1.2
		l0.5-0.8c0-0.1,0.1-0.1,0.2-0.2c0.1,0,0.1-0.1,0.2-0.1c0.1,0,0.2,0,0.3,0.1c0.1,0.1,0.2,0.1,0.3,0.2c0.1,0.1,0.3,0.2,0.4,0.3
		c0.2,0.1,0.3,0.2,0.5,0.3c0.2,0.1,0.4,0.2,0.7,0.2c0.3,0.1,0.6,0.1,0.9,0.1c0.4,0,0.8-0.1,1.1-0.2c0.3-0.1,0.6-0.3,0.8-0.5
		c0.2-0.2,0.4-0.4,0.5-0.7c0.1-0.3,0.2-0.6,0.2-0.9c0-0.4-0.1-0.7-0.3-0.9c-0.2-0.2-0.4-0.5-0.7-0.6c-0.3-0.2-0.6-0.3-1-0.4
		c-0.4-0.1-0.7-0.2-1.1-0.4c-0.4-0.1-0.7-0.3-1.1-0.4s-0.7-0.4-1-0.6s-0.5-0.6-0.7-1c-0.2-0.4-0.3-0.9-0.3-1.4
		c0-0.4,0.1-0.9,0.3-1.3c0.2-0.4,0.4-0.8,0.8-1.1c0.3-0.3,0.7-0.6,1.2-0.8c0.5-0.2,1-0.3,1.7-0.3c0.7,0,1.4,0.1,1.9,0.3
		c0.6,0.2,1.1,0.5,1.5,1L30.7,12.5z"/>
	<path d="M35.4,11.5c0,0.2,0,0.3-0.1,0.4c-0.1,0.1-0.1,0.3-0.2,0.4c-0.1,0.1-0.2,0.2-0.4,0.2c-0.1,0.1-0.3,0.1-0.4,0.1
		c-0.2,0-0.3,0-0.4-0.1c-0.1-0.1-0.2-0.1-0.3-0.2c-0.1-0.1-0.2-0.2-0.2-0.4c-0.1-0.1-0.1-0.3-0.1-0.4c0-0.2,0-0.3,0.1-0.4
		c0.1-0.1,0.1-0.3,0.2-0.4c0.1-0.1,0.2-0.2,0.3-0.2c0.1-0.1,0.3-0.1,0.4-0.1c0.2,0,0.3,0,0.4,0.1c0.1,0.1,0.3,0.1,0.4,0.2
		c0.1,0.1,0.2,0.2,0.2,0.4C35.4,11.2,35.4,11.3,35.4,11.5z M35.1,14.3v9h-1.6v-9H35.1z"/>
	<path d="M37.7,23.3v-9h0.9c0.2,0,0.4,0.1,0.4,0.3l0.1,0.9c0.3-0.4,0.7-0.7,1.1-1c0.4-0.3,0.9-0.4,1.4-0.4c0.6,0,1.1,0.2,1.5,0.5
		c0.4,0.3,0.6,0.8,0.8,1.4c0.1-0.3,0.3-0.6,0.5-0.8c0.2-0.2,0.4-0.4,0.7-0.6c0.3-0.2,0.5-0.3,0.8-0.3c0.3-0.1,0.6-0.1,0.9-0.1
		c0.5,0,0.9,0.1,1.3,0.2c0.4,0.2,0.7,0.4,0.9,0.7c0.3,0.3,0.5,0.6,0.6,1.1c0.1,0.4,0.2,0.9,0.2,1.4v5.7h-1.6v-5.7
		c0-0.7-0.2-1.2-0.5-1.6c-0.3-0.4-0.7-0.5-1.3-0.5c-0.3,0-0.5,0-0.7,0.1c-0.2,0.1-0.4,0.2-0.6,0.4c-0.2,0.2-0.3,0.4-0.4,0.7
		c-0.1,0.3-0.2,0.6-0.2,0.9v5.7h-1.6v-5.7c0-0.7-0.1-1.3-0.4-1.6c-0.3-0.4-0.7-0.5-1.3-0.5c-0.4,0-0.7,0.1-1.1,0.3
		c-0.3,0.2-0.6,0.5-0.9,0.9v6.7H37.7z"/>
	<path d="M53.7,15.7c0.4-0.5,0.8-0.8,1.3-1.1c0.5-0.3,1.1-0.4,1.7-0.4c0.5,0,1,0.1,1.4,0.3c0.4,0.2,0.8,0.5,1.1,0.9
		c0.3,0.4,0.5,0.9,0.7,1.4c0.2,0.6,0.2,1.2,0.2,2c0,0.7-0.1,1.3-0.3,1.8c-0.2,0.6-0.4,1.1-0.8,1.5c-0.3,0.4-0.7,0.7-1.2,1
		c-0.5,0.2-1,0.4-1.6,0.4c-0.5,0-1-0.1-1.4-0.3c-0.4-0.2-0.7-0.4-1-0.8v4h-1.6v-12h0.9c0.2,0,0.4,0.1,0.4,0.3L53.7,15.7z M53.8,21.1
		c0.3,0.4,0.6,0.7,0.9,0.8c0.3,0.2,0.7,0.2,1.2,0.2c0.8,0,1.5-0.3,1.9-0.9c0.4-0.6,0.7-1.4,0.7-2.6c0-0.6-0.1-1.1-0.2-1.5
		c-0.1-0.4-0.3-0.8-0.4-1c-0.2-0.3-0.4-0.5-0.7-0.6c-0.3-0.1-0.6-0.2-1-0.2c-0.5,0-1,0.1-1.4,0.4c-0.4,0.2-0.7,0.6-1.1,1V21.1z"/>
	<path d="M63.8,10.2v13h-1.6v-13H63.8z"/>
	<path d="M73.6,22c-0.2,0.2-0.4,0.4-0.7,0.6c-0.3,0.2-0.6,0.3-0.9,0.4c-0.3,0.1-0.6,0.2-1,0.3c-0.3,0.1-0.7,0.1-1,0.1
		c-0.6,0-1.2-0.1-1.7-0.3c-0.5-0.2-1-0.5-1.4-0.9c-0.4-0.4-0.7-0.9-0.9-1.5c-0.2-0.6-0.3-1.3-0.3-2.1c0-0.6,0.1-1.2,0.3-1.8
		c0.2-0.5,0.5-1,0.8-1.4c0.4-0.4,0.8-0.7,1.3-0.9c0.5-0.2,1.1-0.3,1.8-0.3c0.5,0,1,0.1,1.5,0.3c0.5,0.2,0.9,0.4,1.2,0.8
		c0.3,0.3,0.6,0.8,0.8,1.3s0.3,1.1,0.3,1.7c0,0.2,0,0.4-0.1,0.5c-0.1,0.1-0.2,0.1-0.3,0.1h-6c0,0.6,0.1,1.1,0.2,1.5
		c0.1,0.4,0.3,0.8,0.6,1.1c0.2,0.3,0.5,0.5,0.9,0.6c0.3,0.1,0.7,0.2,1.2,0.2c0.4,0,0.7,0,1-0.1c0.3-0.1,0.5-0.2,0.7-0.3
		c0.2-0.1,0.4-0.2,0.5-0.3s0.3-0.1,0.4-0.1c0.1,0,0.2,0.1,0.3,0.2L73.6,22z M72.3,17.8c0-0.4-0.1-0.7-0.2-1
		c-0.1-0.3-0.3-0.6-0.5-0.8c-0.2-0.2-0.4-0.4-0.7-0.5c-0.3-0.1-0.6-0.2-1-0.2c-0.8,0-1.4,0.2-1.8,0.7c-0.4,0.4-0.7,1-0.8,1.8H72.3z"
		/>
	<path d="M82.8,12.9c-0.1,0.1-0.2,0.2-0.3,0.3c-0.1,0.1-0.2,0.1-0.3,0.1c-0.1,0-0.3,0-0.4-0.1c-0.2-0.1-0.3-0.2-0.5-0.3
		c-0.2-0.1-0.4-0.2-0.7-0.3c-0.3-0.1-0.6-0.1-0.9-0.1c-0.6,0-1.1,0.1-1.4,0.4c-0.3,0.3-0.5,0.6-0.5,1.1c0,0.3,0.1,0.5,0.3,0.7
		c0.2,0.2,0.4,0.3,0.7,0.5c0.3,0.1,0.6,0.3,0.9,0.4c0.3,0.1,0.7,0.2,1.1,0.4c0.4,0.1,0.7,0.3,1.1,0.4c0.3,0.2,0.7,0.4,0.9,0.6
		c0.3,0.3,0.5,0.6,0.7,1c0.2,0.4,0.3,0.8,0.3,1.4c0,0.6-0.1,1.1-0.3,1.6c-0.2,0.5-0.5,1-0.9,1.3c-0.4,0.4-0.9,0.7-1.4,0.9
		c-0.6,0.2-1.2,0.3-1.9,0.3c-0.4,0-0.8,0-1.2-0.1c-0.4-0.1-0.8-0.2-1.2-0.3c-0.4-0.1-0.7-0.3-1.1-0.5c-0.3-0.2-0.6-0.4-0.9-0.7
		l0.8-1.3c0.1-0.1,0.2-0.2,0.3-0.2c0.1-0.1,0.2-0.1,0.3-0.1c0.2,0,0.3,0.1,0.5,0.2c0.2,0.1,0.4,0.2,0.6,0.4c0.2,0.1,0.5,0.3,0.8,0.4
		c0.3,0.1,0.7,0.2,1.1,0.2c0.6,0,1.1-0.1,1.4-0.4c0.3-0.3,0.5-0.7,0.5-1.3c0-0.3-0.1-0.6-0.3-0.8c-0.2-0.2-0.4-0.4-0.7-0.5
		c-0.3-0.1-0.6-0.3-0.9-0.4c-0.3-0.1-0.7-0.2-1.1-0.3c-0.4-0.1-0.7-0.3-1.1-0.4c-0.3-0.2-0.7-0.4-0.9-0.7c-0.3-0.3-0.5-0.6-0.7-1
		c-0.2-0.4-0.3-0.9-0.3-1.5c0-0.5,0.1-0.9,0.3-1.4c0.2-0.4,0.5-0.8,0.8-1.2c0.4-0.3,0.8-0.6,1.4-0.8c0.5-0.2,1.1-0.3,1.8-0.3
		c0.8,0,1.5,0.1,2.1,0.4c0.7,0.2,1.2,0.6,1.7,1L82.8,12.9z"/>
	<path d="M94.3,20.1c0.1,0,0.3,0.1,0.4,0.2l1.1,1.1c-0.5,0.7-1.2,1.2-1.9,1.5c-0.8,0.3-1.7,0.5-2.7,0.5c-1,0-1.8-0.2-2.6-0.5
		s-1.4-0.8-2-1.4c-0.5-0.6-1-1.3-1.2-2.1c-0.3-0.8-0.4-1.7-0.4-2.6c0-0.6,0.1-1.2,0.2-1.8c0.1-0.6,0.3-1.1,0.6-1.6s0.6-0.9,1-1.3
		c0.4-0.4,0.8-0.7,1.3-1c0.5-0.3,1-0.5,1.5-0.6c0.6-0.1,1.2-0.2,1.8-0.2c0.5,0,0.9,0,1.3,0.1c0.4,0.1,0.8,0.2,1.2,0.3
		c0.4,0.1,0.7,0.3,1,0.5c0.3,0.2,0.6,0.4,0.8,0.7l-0.9,1.2c-0.1,0.1-0.1,0.1-0.2,0.2c-0.1,0.1-0.2,0.1-0.3,0.1
		c-0.1,0-0.3-0.1-0.4-0.2c-0.1-0.1-0.3-0.2-0.5-0.3c-0.2-0.1-0.5-0.2-0.8-0.3c-0.3-0.1-0.7-0.2-1.2-0.2c-0.5,0-1,0.1-1.5,0.3
		c-0.4,0.2-0.8,0.5-1.2,0.8C88.2,14,88,14.4,87.8,15c-0.2,0.5-0.3,1.1-0.3,1.8c0,0.7,0.1,1.3,0.3,1.8c0.2,0.5,0.5,1,0.8,1.4
		c0.3,0.4,0.7,0.7,1.2,0.8c0.4,0.2,0.9,0.3,1.4,0.3c0.3,0,0.6,0,0.8,0c0.2,0,0.5-0.1,0.7-0.2c0.2-0.1,0.4-0.2,0.6-0.3
		c0.2-0.1,0.4-0.3,0.6-0.4c0.1-0.1,0.1-0.1,0.2-0.1C94.1,20.1,94.2,20.1,94.3,20.1z"/>
	<path d="M107.5,23.3h-2.4c-0.4,0-0.8-0.2-1-0.5l-2.4-3.9c-0.1-0.2-0.2-0.3-0.3-0.3c-0.1-0.1-0.3-0.1-0.5-0.1h-0.9v4.9h-2.7V10.4h4
		c0.9,0,1.7,0.1,2.3,0.3c0.6,0.2,1.2,0.4,1.6,0.8c0.4,0.3,0.7,0.7,0.9,1.2c0.2,0.5,0.3,1,0.3,1.5c0,0.4-0.1,0.8-0.2,1.2
		c-0.1,0.4-0.3,0.7-0.5,1c-0.2,0.3-0.5,0.6-0.9,0.8c-0.3,0.2-0.7,0.4-1.2,0.6c0.2,0.1,0.3,0.2,0.5,0.3c0.1,0.1,0.3,0.3,0.4,0.5
		L107.5,23.3z M101.3,16.5c0.4,0,0.8-0.1,1.1-0.2c0.3-0.1,0.6-0.3,0.8-0.5c0.2-0.2,0.3-0.4,0.4-0.7c0.1-0.3,0.1-0.5,0.1-0.9
		c0-0.6-0.2-1.1-0.6-1.4c-0.4-0.3-1-0.5-1.8-0.5h-1.4v4.1H101.3z"/>
	<path d="M113.9,21.1c0.4,0,0.8-0.1,1.2-0.2c0.3-0.1,0.6-0.3,0.9-0.6c0.2-0.3,0.4-0.6,0.5-1c0.1-0.4,0.2-0.8,0.2-1.3v-7.7h2.7v7.7
		c0,0.8-0.1,1.5-0.4,2.1c-0.3,0.7-0.6,1.2-1.1,1.7c-0.5,0.5-1,0.8-1.7,1.1c-0.7,0.3-1.4,0.4-2.3,0.4c-0.8,0-1.6-0.1-2.3-0.4
		c-0.7-0.3-1.2-0.6-1.7-1.1c-0.5-0.5-0.8-1-1.1-1.7c-0.3-0.7-0.4-1.4-0.4-2.1v-7.7h2.7v7.7c0,0.5,0.1,0.9,0.2,1.3
		c0.1,0.4,0.3,0.7,0.5,1c0.2,0.3,0.5,0.5,0.9,0.6C113.1,21.1,113.4,21.1,113.9,21.1z"/>
	<path d="M136,10.4v12.9h-2.3v-7.9c0-0.2,0-0.3,0-0.5c0-0.2,0-0.4,0-0.6l-3.7,7c-0.2,0.4-0.5,0.6-0.9,0.6h-0.4c-0.2,0-0.4,0-0.5-0.1
		c-0.2-0.1-0.3-0.2-0.4-0.4l-3.7-7c0,0.2,0,0.4,0,0.6c0,0.2,0,0.4,0,0.5v7.9h-2.3V10.4h2c0.1,0,0.2,0,0.3,0c0.1,0,0.2,0,0.2,0
		c0.1,0,0.1,0.1,0.2,0.1c0.1,0.1,0.1,0.1,0.2,0.2l3.6,6.9c0.1,0.2,0.2,0.4,0.3,0.6c0.1,0.2,0.2,0.4,0.3,0.7c0.1-0.2,0.2-0.5,0.3-0.7
		c0.1-0.2,0.2-0.4,0.3-0.6l3.6-6.8c0.1-0.1,0.1-0.2,0.2-0.2c0.1-0.1,0.1-0.1,0.2-0.1c0.1,0,0.1,0,0.2,0c0.1,0,0.2,0,0.3,0H136z"/>
</g>
<polygon class="st0" points="11.3,4.4 17.2,4.4 11.1,8.2 11.1,24.1 5.8,27.9 0.3,27.9 5.3,24.1 5.3,8.2 "/>
<polygon class="st1" points="19.3,4.4 25.1,4.4 19.1,8.2 19.1,24.1 13.7,27.9 8.3,27.9 13.2,24.1 13.2,8.2 "/>
</svg>
